# xmcd CD database file
#
# Track frame offsets:
#	183
#	8910
#	19070
#	26580
#	38765
#	46928
#	57088
#	66040
#	77230
#	87600
#	96548
#	107190
#	118975
#	127978
#	136810
#	144453
#	153890
#	163748
#	171265
#	183798
#
# Disc length: 2547 seconds
#
# Revision: 1
# Processed by: cddbd v1.5.1PL0 Copyright (c) Steve Scherf et al.
# Submitted via: CDex 1.51
#
DISCID=0c09f114
DTITLE=Jim Reeves - On Stage
DYEAR=1990
DGENRE=Country
TTITLE0=Ynder Comes A Sucker
TTITLE1=He'll Have To Go
TTITLE2=Bimbo
TTITLE3=Four Walls
TTITLE4=Waiting For A Train
TTITLE5=Anna Marie
TTITLE6=I'd Like To Be
TTITLE7=Am I Losing You
TTITLE8=Peace In The Valley
TTITLE9=According To My Heart
TTITLE10=I Missed Me
TTITLE11=Mexican Joe
TTITLE12=Billy Bayou
TTITLE13=(Gimme That) Old Time Religion
TTITLE14=I Know One
TTITLE15=I'm Getting Better
TTITLE16=Softly and Tenderly
TTITLE17=In A Mansion Stands My Love
TTITLE18=When God Dips His Love In My Heart
TTITLE19=Blue Boy
EXTD=YEAR: 1990
EXTT0=
EXTT1=
EXTT2=
EXTT3=
EXTT4=
EXTT5=
EXTT6=
EXTT7=
EXTT8=
EXTT9=
EXTT10=
EXTT11=
EXTT12=
EXTT13=
EXTT14=
EXTT15=
EXTT16=
EXTT17=
EXTT18=
EXTT19=
PLAYORDER=
